# xmcd CD database file
#
# Track frame offsets:
#	150
#	13381
#	24525
#	43385
#	57891
#	73320
#	88672
#	105039
#	115393
#	129106
#	145420
#	160980
#	170934
#	183920
#	198751
#
# Disc length: 2873 seconds
#
# Revision: 0
# Processed by: cddbd v1.5.2PL0 Copyright (c) Steve Scherf et al.
# Submitted via: CDex 1.51
#
DISCID=d50b370f
DTITLE=Jorge Degas - Cantar a Vida
DYEAR=1900
DGENRE=Jazz
TTITLE0=eu já sei
TTITLE1=cantar a vida
TTITLE2=o poeta beija flor
TTITLE3=brasil postal
TTITLE4=cedo d'amanhä
TTITLE5=sinto ela chegar
TTITLE6=terra branca
TTITLE7=fäm fäm
TTITLE8=outono
TTITLE9=vem morena
TTITLE10=sempre sonhei
TTITLE11=meu jardim
TTITLE12=sinto sempre assim
TTITLE13=a tempo passou
TTITLE14=um dia mama
EXTD=
EXTT0=
EXTT1=
EXTT2=
EXTT3=
EXTT4=
EXTT5=
EXTT6=
EXTT7=
EXTT8=
EXTT9=
EXTT10=
EXTT11=
EXTT12=
EXTT13=
EXTT14=
PLAYORDER=
